<svg xmlns="http://www.w3.org/2000/svg" xmlns:xlink="http://www.w3.org/1999/xlink" version="1.1" x="0px" y="0px" viewBox="0 0 100 125" enable-background="new 0 0 100 100" xml:space="preserve"><g><path fill="none" d="M82.529,42.374c-0.097,0.053-0.192,0.103-0.289,0.154l0.026,0.305C82.348,42.688,82.436,42.536,82.529,42.374z   "/><path fill="none" d="M80.843,31.951c2.602,2.009,6.355,1.527,8.366-1.078c2.009-2.604,1.525-6.357-1.079-8.368   c-2.604-2.01-6.358-1.526-8.366,1.078C77.755,26.188,78.238,29.941,80.843,31.951z"/><path fill="none" d="M82.348,43.928l0.394,5.155l2.903-1.144c0.986-2.291,1.833-4.573,2.396-6.404   c-1.63,1.261-3.286,2.109-4.76,2.283L82.348,43.928z"/><path fill="none" d="M40.191,21.592c0.138-1.195,0.288-2.417,0.466-3.697c0.059-0.414,0.025-0.865-0.613-1.356   c-0.825-0.638-2.188-0.987-3.279-1.162c-0.114,1.364-0.333,3.61-0.714,6.476L40.191,21.592z"/><path fill="none" d="M47.558,62.956l29.169-11.5l-0.497-5.855c-20.81,9.968-31.631,8.366-32.162,8.276l-0.49-0.08l-0.334-0.366   c-0.235-0.253-4.988-5.692-3.64-25.597l-4.515,0.337c-0.766,4.461-1.838,9.671-3.344,15.194   C27.759,58.008,19.874,77.89,4.884,90.007c1.802,1.214,6.273,2.624,8.885,3.356c1.111-2.371,4.007-7.965,8.938-13.651   c7.993-9.219,17.754-14.448,28.345-15.208c-0.133-0.063-0.247-0.114-0.33-0.151L47.558,62.956z"/><path fill="none" d="M45.111,51.077c2.861,0.185,16.47,0.174,40.026-13.481c0.285-0.56,0.557-1.112,0.802-1.642   c-2.345,0.387-4.842-0.149-6.864-1.712c-3.248-2.508-4.262-6.838-2.741-10.454L42.506,27.79   C41.405,43.473,44.199,49.548,45.111,51.077z"/><path fill="#000000" d="M54.713,63.244l33.098-13.052l0.24-0.542c2.848-6.45,3.591-9.79,3.579-11.59   c3.33-3.891,5.854-8.895,5.465-12.194c-0.7-5.9-6.047-10.117-11.947-9.418L43.12,21.42c0.121-1.013,0.254-2.046,0.402-3.124   c0.222-1.586-0.385-3.022-1.71-4.045c-2.229-1.718-5.914-1.894-6.327-1.908l-1.418-0.048l-0.078,1.415   c-0.03,0.52-3.182,52.293-31.493,74.502c-0.792,0.623-0.908,1.363-0.907,1.752c0.004,0.779,0.441,1.509,1.296,2.169   c2.697,2.081,10.46,4.128,11.338,4.354l1.222,0.316l0.477-1.168c0.114-0.278,11.718-27.852,37.175-28.328   c0.744-0.013,2.486-0.042,2.944-1.425C56.248,65.253,56.146,64.254,54.713,63.244z M85.645,47.939l-2.903,1.144l-0.394-5.155   l0.933-0.112c1.478-0.175,3.13-1.023,4.76-2.282C87.475,43.366,86.631,45.648,85.645,47.939z M82.529,42.374   c-0.094,0.163-0.182,0.314-0.263,0.459l-0.028-0.305C82.337,42.477,82.433,42.426,82.529,42.374z M88.13,22.506   c2.604,2.01,3.088,5.763,1.079,8.368c-2.011,2.604-5.765,3.087-8.366,1.078c-2.604-2.01-3.088-5.763-1.079-8.368   C81.771,20.979,85.526,20.497,88.13,22.506z M76.329,23.789c-1.52,3.616-0.505,7.945,2.743,10.454   c2.024,1.562,4.519,2.099,6.863,1.712c-0.246,0.53-0.514,1.082-0.799,1.642C61.581,51.251,47.969,51.262,45.111,51.077   c-0.915-1.529-3.707-7.603-2.607-23.287L76.329,23.789z M40.043,16.541c0.637,0.492,0.672,0.941,0.613,1.357   c-0.178,1.28-0.329,2.5-0.466,3.696l-4.14,0.263c0.38-2.866,0.601-5.112,0.714-6.475C37.855,15.554,39.219,15.903,40.043,16.541z    M22.706,79.712c-4.929,5.688-7.828,11.283-8.938,13.651c-2.612-0.732-7.082-2.143-8.885-3.356   C19.874,77.89,27.759,58.008,31.748,43.365c1.503-5.526,2.579-10.733,3.343-15.194l4.515-0.337   c-1.35,19.905,3.404,25.344,3.639,25.597l0.336,0.366l0.49,0.08c0.531,0.09,11.351,1.691,32.163-8.276l0.496,5.855l-29.169,11.5   l3.163,1.399c0.083,0.034,0.196,0.087,0.33,0.148C40.462,65.262,30.698,70.493,22.706,79.712z"/></g><text x="0" y="115" fill="#000000" font-size="5px" font-weight="bold" font-family="'Helvetica Neue', Helvetica, Arial-Unicode, Arial, Sans-serif">Created by Yevgeniy Osovets</text><text x="0" y="120" fill="#000000" font-size="5px" font-weight="bold" font-family="'Helvetica Neue', Helvetica, Arial-Unicode, Arial, Sans-serif">from the Noun Project</text></svg>